# Exported from Wings 3D 1.4.1
mtllib circuit.mtl
o cube1
#8 vertices, 6 faces
v -0.26750863 2.9482347e-3 0.20924562
v -0.26750863 5.2428661e-2 0.20924562
v 0.26750863 5.2428661e-2 0.20924562
v 0.26750863 2.9482347e-3 0.20924562
v -0.26750863 2.9482347e-3 -0.20924562
v -0.26750863 5.2428661e-2 -0.20924562
v 0.26750863 5.2428661e-2 -0.20924562
v 0.26750863 2.9482347e-3 -0.20924562
vt -5.5218956e-5 0.56376231
vt 0.0000000e+0 1.00000000
vt 1.1102230e-16 0.57314886
vt 3.9871532e-4 8.3365791e-5
vt 3.0574278e-2 3.1316555e-2
vt 3.1038675e-2 0.53168686
vt 0.96832356 0.53169678
vt 0.96834936 3.1435448e-2
vt 0.99608268 1.00000000
vt 0.99608268 0.57314886
vt 0.99942593 3.5851183e-4
vt 1.00014384 0.56745466
vn -0.57735027 -0.57735027 0.57735027
vn -0.57735027 0.57735027 0.57735027
vn 0.57735027 0.57735027 0.57735027
vn 0.57735027 -0.57735027 0.57735027
vn -0.57735027 -0.57735027 -0.57735027
vn -0.57735027 0.57735027 -0.57735027
vn 0.57735027 0.57735027 -0.57735027
vn 0.57735027 -0.57735027 -0.57735027
g cube1_cube1_auv
usemtl cube1_auv
s 1
f 1/8/1 4/5/4 3/4/3 2/11/2
f 1/8/1 5/7/5 8/6/8 4/5/4
f 2/11/2 6/12/6 5/7/5 1/8/1
f 3/10/3 7/9/7 6/2/6 2/3/2
f 4/5/4 8/6/8 7/1/7 3/4/3
f 6/12/6 7/1/7 8/6/8 5/7/5
