# Exported from Wings 3D 1.4.1
mtllib house.mtl
o sphere2
#98 vertices, 120 faces
v 2.77981245 4.55110016 5.5144664e-17
v 2.68509264 4.55110016 0.71946840
v 2.40738820 4.55110016 1.38990623
v 1.96562424 4.55110016 1.96562424
v 1.38990623 4.55110016 2.40738820
v 0.71946840 4.55110016 2.68509264
v 6.9889356e-16 4.55110016 2.77981245
v -0.71946840 4.55110016 2.68509264
v -1.38990623 4.55110016 2.40738820
v -1.96562424 4.55110016 1.96562424
v -2.40738820 4.55110016 1.38990623
v -2.68509264 4.55110016 0.71946840
v -2.77981245 4.55110016 3.9557351e-16
v -2.68509264 4.55110016 -0.71946840
v -2.40738820 4.55110016 -1.38990623
v -1.96562424 4.55110016 -1.96562424
v -1.38990623 4.55110016 -2.40738820
v -0.71946840 4.55110016 -2.68509264
v 1.8035878e-17 4.55110016 -2.77981245
v 0.71946840 4.55110016 -2.68509264
v 1.38990623 4.55110016 -2.40738820
v 1.96562424 4.55110016 -1.96562424
v 2.40738820 4.55110016 -1.38990623
v 2.68509264 4.55110016 -0.71946840
v 5.13642366 3.46774972 5.5144664e-17
v 4.96140427 3.46774972 1.32940427
v 4.44827337 3.46774972 2.56821183
v 3.63200000 3.46774972 3.63200000
v 2.56821183 3.46774972 4.44827337
v 1.32940427 3.46774972 4.96140427
v 8.4319438e-16 3.46774972 5.13642366
v -1.32940427 3.46774972 4.96140427
v -2.56821183 3.46774972 4.44827337
v -3.63200000 3.46774972 3.63200000
v -4.44827337 3.46774972 2.56821183
v -4.96140427 3.46774972 1.32940427
v -5.13642366 3.46774972 6.8417514e-16
v -4.96140427 3.46774972 -1.32940427
v -4.44827337 3.46774972 -2.56821183
v -3.63200000 3.46774972 -3.63200000
v -2.56821183 3.46774972 -4.44827337
v -1.32940427 3.46774972 -4.96140427
v -4.1486658e-16 3.46774972 -5.13642366
v 1.32940427 3.46774972 -4.96140427
v 2.56821183 3.46774972 -4.44827337
v 3.63200000 3.46774972 -3.63200000
v 4.44827337 3.46774972 -2.56821183
v 4.96140427 3.46774972 -1.32940427
v 6.71106092 1.84640121 5.5144664e-17
v 6.48238707 1.84640121 1.73695038
v 5.81194925 1.84640121 3.35553046
v 4.74543669 1.84640121 4.74543669
v 3.35553046 1.84640121 5.81194925
v 1.73695038 1.84640121 6.48238707
v 9.3961311e-16 1.84640121 6.71106092
v -1.73695038 1.84640121 6.48238707
v -3.35553046 1.84640121 5.81194925
v -4.74543669 1.84640121 4.74543669
v -5.81194925 1.84640121 3.35553046
v -6.48238707 1.84640121 1.73695038
v -6.71106092 1.84640121 8.7701259e-16
v -6.48238707 1.84640121 -1.73695038
v -5.81194925 1.84640121 -3.35553046
v -4.74543669 1.84640121 -4.74543669
v -3.35553046 1.84640121 -5.81194925
v -1.73695038 1.84640121 -6.48238707
v -7.0412275e-16 1.84640121 -6.71106092
v 1.73695038 1.84640121 -6.48238707
v 3.35553046 1.84640121 -5.81194925
v 4.74543669 1.84640121 -4.74543669
v 5.81194925 1.84640121 -3.35553046
v 6.48238707 1.84640121 -1.73695038
v 7.26400000 -6.6109759e-2 5.5144664e-17
v 7.01648520 -6.6109759e-2 1.88006154
v 6.29080853 -6.6109759e-2 3.63200000
v 5.13642366 -6.6109759e-2 5.13642366
v 3.63200000 -6.6109759e-2 6.29080853
v 1.88006154 -6.6109759e-2 7.01648520
v 9.7347086e-16 -6.6109759e-2 7.26400000
v -1.88006154 -6.6109759e-2 7.01648520
v -3.63200000 -6.6109759e-2 6.29080853
v -5.13642366 -6.6109759e-2 5.13642366
v -6.29080853 -6.6109759e-2 3.63200000
v -7.01648520 -6.6109759e-2 1.88006154
v -7.26400000 -6.6109759e-2 9.4472810e-16
v -7.01648520 -6.6109759e-2 -1.88006154
v -6.29080853 -6.6109759e-2 -3.63200000
v -5.13642366 -6.6109759e-2 -5.13642366
v -3.63200000 -6.6109759e-2 -6.29080853
v -1.88006154 -6.6109759e-2 -7.01648520
v -8.0569601e-16 -6.6109759e-2 -7.26400000
v 1.88006154 -6.6109759e-2 -7.01648520
v 3.63200000 -6.6109759e-2 -6.29080853
v 5.13642366 -6.6109759e-2 -5.13642366
v 6.29080853 -6.6109759e-2 -3.63200000
v 7.01648520 -6.6109759e-2 -1.88006154
v 5.2867914e-16 4.93152224 5.5144664e-17
v -6.8101987e-16 -0.14121892 -1.6327321e-16
vn 0.27957511 0.96012382 1.0531296e-17
vn 0.27004882 0.96012382 7.2359364e-2
vn 0.24211915 0.96012382 0.13978756
vn 0.19768946 0.96012382 0.19768946
vn 0.13978756 0.96012382 0.24211915
vn 7.2359364e-2 0.96012382 0.27004882
vn 2.4573023e-17 0.96012382 0.27957511
vn -7.2359364e-2 0.96012382 0.27004882
vn -0.13978756 0.96012382 0.24211915
vn -0.19768946 0.96012382 0.19768946
vn -0.24211915 0.96012382 0.13978756
vn -0.27004882 0.96012382 7.2359364e-2
vn -0.27957511 0.96012382 4.9497089e-16
vn -0.27004882 0.96012382 -7.2359364e-2
vn -0.24211915 0.96012382 -0.13978756
vn -0.19768946 0.96012382 -0.19768946
vn -0.13978756 0.96012382 -0.24211915
vn -7.2359364e-2 0.96012382 -0.27004882
vn -1.5796943e-16 0.96012382 -0.27957511
vn 7.2359364e-2 0.96012382 -0.27004882
vn 0.13978756 0.96012382 -0.24211915
vn 0.19768946 0.96012382 -0.19768946
vn 0.24211915 0.96012382 -0.13978756
vn 0.27004882 0.96012382 -7.2359364e-2
vn 0.57710655 0.81666886 -1.7699479e-16
vn 0.55744212 0.81666886 0.14936617
vn 0.49978893 0.81666886 0.28855327
vn 0.40807595 0.81666886 0.40807595
vn 0.28855327 0.81666886 0.49978893
vn 0.14936617 0.81666886 0.55744212
vn 1.0973677e-16 0.81666886 0.57710655
vn -0.14936617 0.81666886 0.55744212
vn -0.28855327 0.81666886 0.49978893
vn -0.40807595 0.81666886 0.40807595
vn -0.49978893 0.81666886 0.28855327
vn -0.55744212 0.81666886 0.14936617
vn -0.57710655 0.81666886 2.8319166e-16
vn -0.55744212 0.81666886 -0.14936617
vn -0.49978893 0.81666886 -0.28855327
vn -0.40807595 0.81666886 -0.40807595
vn -0.28855327 0.81666886 -0.49978893
vn -0.14936617 0.81666886 -0.55744212
vn -3.6460926e-16 0.81666886 -0.57710655
vn 0.14936617 0.81666886 -0.55744212
vn 0.28855327 0.81666886 -0.49978893
vn 0.40807595 0.81666886 -0.40807595
vn 0.49978893 0.81666886 -0.28855327
vn 0.55744212 0.81666886 -0.14936617
vn 0.86454637 0.50255306 -2.3747701e-16
vn 0.83508766 0.50255306 0.22376107
vn 0.74871912 0.50255306 0.43227318
vn 0.61132660 0.50255306 0.61132660
vn 0.43227318 0.50255306 0.74871912
vn 0.22376107 0.50255306 0.83508766
vn 1.7271055e-16 0.50255306 0.86454637
vn -0.22376107 0.50255306 0.83508766
vn -0.43227318 0.50255306 0.74871912
vn -0.61132660 0.50255306 0.61132660
vn -0.74871912 0.50255306 0.43227318
vn -0.83508766 0.50255306 0.22376107
vn -0.86454637 0.50255306 3.5261738e-16
vn -0.83508766 0.50255306 -0.22376107
vn -0.74871912 0.50255306 -0.43227318
vn -0.61132660 0.50255306 -0.61132660
vn -0.43227318 0.50255306 -0.74871912
vn -0.22376107 0.50255306 -0.83508766
vn -4.7495402e-16 0.50255306 -0.86454637
vn 0.22376107 0.50255306 -0.83508766
vn 0.43227318 0.50255306 -0.74871912
vn 0.61132660 0.50255306 -0.61132660
vn 0.74871912 0.50255306 -0.43227318
vn 0.83508766 0.50255306 -0.22376107
vn 0.79926406 -0.60098000 -2.0049456e-16
vn 0.77202980 -0.60098000 0.20686476
vn 0.69218298 -0.60098000 0.39963203
vn 0.56516504 -0.60098000 0.56516504
vn 0.39963203 -0.60098000 0.69218298
vn 0.20686476 -0.60098000 0.77202980
vn 1.3762076e-16 -0.60098000 0.79926406
vn -0.20686476 -0.60098000 0.77202980
vn -0.39963203 -0.60098000 0.69218298
vn -0.56516504 -0.60098000 0.56516504
vn -0.69218298 -0.60098000 0.39963203
vn -0.77202980 -0.60098000 0.20686476
vn -0.79926406 -0.60098000 2.8639510e-16
vn -0.77202980 -0.60098000 -0.20686476
vn -0.69218298 -0.60098000 -0.39963203
vn -0.56516504 -0.60098000 -0.56516504
vn -0.39963203 -0.60098000 -0.69218298
vn -0.20686476 -0.60098000 -0.77202980
vn -4.0782519e-16 -0.60098000 -0.79926406
vn 0.20686476 -0.60098000 -0.77202980
vn 0.39963203 -0.60098000 -0.69218298
vn 0.56516504 -0.60098000 -0.56516504
vn 0.69218298 -0.60098000 -0.39963203
vn 0.77202980 -0.60098000 -0.20686476
vn -1.0507028e-17 1.00000000 -3.1375153e-17
vn -2.4576586e-18 -1.00000000 1.0842611e-19
g sphere2_default
usemtl default
s 1
f 1//1 25//25 48//48 24//24
f 1//1 97//97 2//2
f 2//2 26//26 25//25 1//1
f 2//2 97//97 3//3
f 3//3 27//27 26//26 2//2
f 3//3 97//97 4//4
f 4//4 28//28 27//27 3//3
f 4//4 97//97 5//5
f 5//5 29//29 28//28 4//4
f 5//5 97//97 6//6
f 6//6 30//30 29//29 5//5
f 6//6 97//97 7//7
f 7//7 31//31 30//30 6//6
f 7//7 97//97 8//8
f 8//8 32//32 31//31 7//7
f 8//8 97//97 9//9
f 9//9 33//33 32//32 8//8
f 9//9 97//97 10//10
f 10//10 34//34 33//33 9//9
f 10//10 97//97 11//11
f 11//11 35//35 34//34 10//10
f 11//11 97//97 12//12
f 12//12 36//36 35//35 11//11
f 12//12 97//97 13//13
f 13//13 37//37 36//36 12//12
f 13//13 97//97 14//14
f 14//14 38//38 37//37 13//13
f 14//14 97//97 15//15
f 15//15 39//39 38//38 14//14
f 15//15 97//97 16//16
f 16//16 40//40 39//39 15//15
f 16//16 97//97 17//17
f 17//17 41//41 40//40 16//16
f 17//17 97//97 18//18
f 18//18 42//42 41//41 17//17
f 18//18 97//97 19//19
f 19//19 43//43 42//42 18//18
f 19//19 97//97 20//20
f 20//20 44//44 43//43 19//19
f 20//20 97//97 21//21
f 21//21 45//45 44//44 20//20
f 21//21 97//97 22//22
f 22//22 46//46 45//45 21//21
f 22//22 97//97 23//23
f 23//23 47//47 46//46 22//22
f 23//23 97//97 24//24
f 24//24 48//48 47//47 23//23
f 24//24 97//97 1//1
f 25//25 49//49 72//72 48//48
f 26//26 50//50 49//49 25//25
f 27//27 51//51 50//50 26//26
f 28//28 52//52 51//51 27//27
f 29//29 53//53 52//52 28//28
f 30//30 54//54 53//53 29//29
f 31//31 55//55 54//54 30//30
f 32//32 56//56 55//55 31//31
f 33//33 57//57 56//56 32//32
f 34//34 58//58 57//57 33//33
f 35//35 59//59 58//58 34//34
f 36//36 60//60 59//59 35//35
f 37//37 61//61 60//60 36//36
f 38//38 62//62 61//61 37//37
f 39//39 63//63 62//62 38//38
f 40//40 64//64 63//63 39//39
f 41//41 65//65 64//64 40//40
f 42//42 66//66 65//65 41//41
f 43//43 67//67 66//66 42//42
f 44//44 68//68 67//67 43//43
f 45//45 69//69 68//68 44//44
f 46//46 70//70 69//69 45//45
f 47//47 71//71 70//70 46//46
f 48//48 72//72 71//71 47//47
f 49//49 73//73 96//96 72//72
f 50//50 74//74 73//73 49//49
f 51//51 75//75 74//74 50//50
f 52//52 76//76 75//75 51//51
f 53//53 77//77 76//76 52//52
f 54//54 78//78 77//77 53//53
f 55//55 79//79 78//78 54//54
f 56//56 80//80 79//79 55//55
f 57//57 81//81 80//80 56//56
f 58//58 82//82 81//81 57//57
f 59//59 83//83 82//82 58//58
f 60//60 84//84 83//83 59//59
f 61//61 85//85 84//84 60//60
f 62//62 86//86 85//85 61//61
f 63//63 87//87 86//86 62//62
f 64//64 88//88 87//87 63//63
f 65//65 89//89 88//88 64//64
f 66//66 90//90 89//89 65//65
f 67//67 91//91 90//90 66//66
f 68//68 92//92 91//91 67//67
f 69//69 93//93 92//92 68//68
f 70//70 94//94 93//93 69//69
f 71//71 95//95 94//94 70//70
f 72//72 96//96 95//95 71//71
f 73//73 98//98 96//96
f 74//74 98//98 73//73
f 75//75 98//98 74//74
f 76//76 98//98 75//75
f 77//77 98//98 76//76
f 78//78 98//98 77//77
f 79//79 98//98 78//78
f 80//80 98//98 79//79
f 81//81 98//98 80//80
f 82//82 98//98 81//81
f 83//83 98//98 82//82
f 84//84 98//98 83//83
f 85//85 98//98 84//84
f 86//86 98//98 85//85
f 87//87 98//98 86//86
f 88//88 98//98 87//87
f 89//89 98//98 88//88
f 90//90 98//98 89//89
f 91//91 98//98 90//90
f 92//92 98//98 91//91
f 93//93 98//98 92//92
f 94//94 98//98 93//93
f 95//95 98//98 94//94
f 96//96 98//98 95//95
